<svg width="19" height="22" viewBox="0 0 19 22" fill="none" xmlns="http://www.w3.org/2000/svg">
<path d="M9.07675 0C4.06009 0 0.0467529 4 0.0467529 9V16C0.0467529 16.7956 0.363877 17.5587 0.928362 18.1213C1.49285 18.6839 2.25845 19 3.05675 19H6.06675V11H2.05342V9C2.05342 7.14348 2.79338 5.36301 4.11051 4.05025C5.42764 2.7375 7.21405 2 9.07675 2C10.9395 2 12.7259 2.7375 14.043 4.05025C15.3601 5.36301 16.1001 7.14348 16.1001 9V11H12.0868V19H16.1001V20H9.07675V22H15.0968C15.8951 22 16.6607 21.6839 17.2251 21.1213C17.7896 20.5587 18.1068 19.7956 18.1068 19V9C18.1068 4 14.0633 0 9.07675 0Z" fill="black"/>
</svg>
