<svg width="249" height="35" viewBox="0 0 249 35" fill="none" xmlns="http://www.w3.org/2000/svg">
<path d="M227.517 0.295998H232.557C233.645 0.295998 234.349 0.471998 234.669 0.823999C235.021 1.176 235.197 1.912 235.197 3.032V35H230.157C229.069 35 228.349 34.824 227.997 34.472C227.677 34.12 227.517 33.384 227.517 32.264V0.295998ZM240.381 20.648H245.853C246.813 20.648 247.501 20.92 247.917 21.464C248.333 21.976 248.541 22.824 248.541 24.008V35H242.109C241.597 35 241.181 34.824 240.861 34.472C240.541 34.12 240.381 33.656 240.381 33.08V20.648ZM240.525 0.295998H246.045C246.973 0.295998 247.565 0.471998 247.821 0.823999C248.077 1.176 248.205 1.912 248.205 3.032V13.208C248.205 15.128 247.853 16.568 247.149 17.528C246.477 18.456 245.101 18.92 243.021 18.92H237.117V14.36H239.229C239.805 14.36 240.157 14.264 240.285 14.072C240.445 13.848 240.525 13.48 240.525 12.968V0.295998Z" fill="black"/>
<path d="M220.635 0.295998V32.264C220.635 33.384 220.459 34.12 220.107 34.472C219.787 34.824 219.083 35 217.995 35H211.179C209.291 35 208.043 34.712 207.435 34.136C206.859 33.56 206.347 32.072 205.899 29.672C205.003 24.936 203.707 17.288 202.011 6.728C201.883 5.928 201.691 5.416 201.435 5.192C201.211 4.968 200.811 4.84 200.235 4.808H194.331V0.295998H204.747C205.547 0.295998 206.187 0.391998 206.667 0.584C207.147 0.775999 207.531 1.192 207.819 1.832C208.139 2.44 208.347 3.032 208.443 3.608C208.571 4.184 208.699 4.856 208.827 5.624C208.987 6.552 209.211 7.912 209.499 9.704C210.043 13.32 210.891 18.424 212.043 25.016C212.491 27.832 212.795 29.416 212.955 29.768C213.147 30.088 213.467 30.28 213.915 30.344V2.216C213.915 1.64 214.075 1.176 214.395 0.823999C214.715 0.471998 215.131 0.295998 215.643 0.295998H220.635ZM194.331 6.488H199.323C199.835 6.488 200.251 6.664 200.571 7.016C200.891 7.368 201.051 7.832 201.051 8.408V32.264C201.051 33.352 200.907 34.088 200.619 34.472C200.331 34.824 199.755 35 198.891 35H194.331V6.488Z" fill="black"/>
<path d="M171.399 0.295998V29.048C171.399 29.56 171.463 29.928 171.591 30.152C171.751 30.344 172.119 30.44 172.695 30.44H177.879V35H170.823C168.487 35 166.711 34.6 165.495 33.8C164.311 33 163.719 31.608 163.719 29.624V3.032C163.719 1.912 163.879 1.176 164.199 0.823999C164.551 0.471998 165.271 0.295998 166.359 0.295998H171.399ZM179.319 0.295998H184.359C185.447 0.295998 186.151 0.471998 186.471 0.823999C186.823 1.176 186.999 1.912 186.999 3.032V29.048C186.999 29.56 187.063 29.928 187.191 30.152C187.351 30.344 187.719 30.44 188.295 30.44H189.159V35H186.423C184.087 35 182.311 34.6 181.095 33.8C179.911 33 179.319 31.608 179.319 29.624V0.295998Z" fill="black"/>
<path d="M143.182 35H138.142C137.054 35 136.334 34.824 135.982 34.472C135.662 34.12 135.502 33.384 135.502 32.264V2.216C135.502 1.64 135.662 1.176 135.982 0.823999C136.302 0.471998 136.718 0.295998 137.23 0.295998H143.182V35ZM145.102 0.295998H151.198C154.238 0.295998 156.254 1.016 157.246 2.456C158.27 3.864 158.782 6.712 158.782 11C158.782 13.848 158.462 16.072 157.822 17.672C157.214 19.272 156.398 20.344 155.374 20.888C154.35 21.4 152.958 21.656 151.198 21.656H145.102V17.096H148.654C149.486 17.096 150.014 16.984 150.238 16.76C150.494 16.536 150.622 16.184 150.622 15.704V6.296C150.622 5.784 150.494 5.416 150.238 5.192C150.014 4.968 149.486 4.856 148.654 4.856H145.102V0.295998Z" fill="black"/>
<path d="M103.95 0.295998H118.974C119.486 0.295998 119.902 0.471998 120.222 0.823999C120.542 1.176 120.702 1.64 120.702 2.216V35H115.662C114.574 35 113.854 34.824 113.502 34.472C113.182 34.12 113.022 33.384 113.022 32.264V6.296H105.342C104.414 6.296 103.95 5.528 103.95 3.992V0.295998ZM122.622 0.295998H130.302C131.23 0.295998 131.694 1.064 131.694 2.6V6.296H122.622V0.295998Z" fill="black"/>
<path d="M99.2756 0.295998V32.264C99.2756 33.384 99.0996 34.12 98.7476 34.472C98.4276 34.824 97.7236 35 96.6356 35H89.8196C87.9316 35 86.6836 34.712 86.0756 34.136C85.4996 33.56 84.9876 32.072 84.5396 29.672C83.6436 24.936 82.3476 17.288 80.6516 6.728C80.5236 5.928 80.3316 5.416 80.0756 5.192C79.8516 4.968 79.4516 4.84 78.8756 4.808H72.9716V0.295998H83.3876C84.1876 0.295998 84.8276 0.391998 85.3076 0.584C85.7876 0.775999 86.1716 1.192 86.4596 1.832C86.7796 2.44 86.9876 3.032 87.0836 3.608C87.2116 4.184 87.3396 4.856 87.4676 5.624C87.6276 6.552 87.8516 7.912 88.1396 9.704C88.6836 13.32 89.5316 18.424 90.6836 25.016C91.1316 27.832 91.4356 29.416 91.5956 29.768C91.7876 30.088 92.1076 30.28 92.5556 30.344V2.216C92.5556 1.64 92.7156 1.176 93.0356 0.823999C93.3556 0.471998 93.7716 0.295998 94.2836 0.295998H99.2756ZM72.9716 6.488H77.9636C78.4756 6.488 78.8916 6.664 79.2116 7.016C79.5316 7.368 79.6916 7.832 79.6916 8.408V32.264C79.6916 33.352 79.5476 34.088 79.2596 34.472C78.9716 34.824 78.3956 35 77.5316 35H72.9716V6.488Z" fill="black"/>
<path d="M66.0724 35H61.0324C59.9444 35 59.2244 34.824 58.8724 34.472C58.5524 34.12 58.3924 33.384 58.3924 32.264V3.032C58.3924 1.912 58.5524 1.176 58.8724 0.823999C59.2244 0.471998 59.9444 0.295998 61.0324 0.295998H66.0724V35Z" fill="black"/>
<path d="M36.3536 35H31.3136C30.2256 35 29.5056 34.824 29.1536 34.472C28.8336 34.12 28.6736 33.384 28.6736 32.264V2.216C28.6736 1.64 28.8336 1.176 29.1536 0.823999C29.4736 0.471998 29.8896 0.295998 30.4016 0.295998H36.3536V35ZM38.2736 0.295998H44.3696C46.2256 0.295998 47.6816 0.439998 48.7376 0.727998C49.8256 1.016 50.6416 1.592 51.1856 2.456C51.7296 3.288 52.0656 4.232 52.1936 5.288C52.3536 6.312 52.4336 7.768 52.4336 9.656C52.4336 11.544 52.3536 12.984 52.1936 13.976C52.0656 14.968 51.7296 15.896 51.1856 16.76C50.6736 17.624 49.8576 18.232 48.7376 18.584C47.6496 18.936 46.1936 19.112 44.3696 19.112H38.2736V14.552H41.8256C42.6576 14.552 43.1856 14.44 43.4096 14.216C43.6656 13.992 43.7936 13.64 43.7936 13.16V6.296C43.7936 5.784 43.6656 5.416 43.4096 5.192C43.1856 4.968 42.6576 4.856 41.8256 4.856H38.2736V0.295998ZM42.8816 20.6H48.8336C49.7936 20.6 50.4816 20.872 50.8976 21.416C51.3136 21.928 51.5216 22.776 51.5216 23.96V35H44.6096C44.0976 35 43.6816 34.824 43.3616 34.472C43.0416 34.12 42.8816 33.656 42.8816 33.08V20.6Z" fill="black"/>
<path d="M8.08799 35H3.04799C1.95999 35 1.23999 34.824 0.88799 34.472C0.56799 34.12 0.40799 33.384 0.40799 32.264V2.216C0.40799 1.64 0.56799 1.176 0.88799 0.823999C1.20799 0.471998 1.62399 0.295998 2.13599 0.295998H8.08799V35ZM10.008 0.295998H16.104C19.144 0.295998 21.16 1.016 22.152 2.456C23.176 3.864 23.688 6.712 23.688 11C23.688 13.848 23.368 16.072 22.728 17.672C22.12 19.272 21.304 20.344 20.28 20.888C19.256 21.4 17.864 21.656 16.104 21.656H10.008V17.096H13.56C14.392 17.096 14.92 16.984 15.144 16.76C15.4 16.536 15.528 16.184 15.528 15.704V6.296C15.528 5.784 15.4 5.416 15.144 5.192C14.92 4.968 14.392 4.856 13.56 4.856H10.008V0.295998Z" fill="black"/>
</svg>
