<svg width="114" height="95" viewBox="0 0 114 95" fill="none" xmlns="http://www.w3.org/2000/svg">
<path d="M77.6508 94.6889H35.9492C34.5667 94.6889 33.2408 94.138 32.2632 93.1575C31.2856 92.177 30.7365 90.8471 30.7365 89.4605V47.9993L23.9599 53.2277C21.927 55.2668 18.643 55.2668 16.61 53.2277L1.85805 38.6928C-0.174911 36.6537 -0.174911 33.3598 1.85805 31.3207L32.5088 0.577759H41.1619C41.1619 6.32899 48.1469 11.0345 56.8 11.0345C65.4531 11.0345 72.4381 6.32899 72.4381 0.577759H81.0912L111.742 31.3207C113.775 33.3598 113.775 36.6537 111.742 38.6928L96.99 53.4891C94.957 55.4759 91.673 55.4759 89.6401 53.4891L82.8635 48.2607V89.4605C82.8635 90.8471 82.3143 92.177 81.3368 93.1575C80.3592 94.138 79.0333 94.6889 77.6508 94.6889Z" fill="black"/>
</svg>
