<svg width="113" height="107" viewBox="0 0 113 107" fill="none" xmlns="http://www.w3.org/2000/svg">
<path d="M111.346 63.3242L105.694 68.9281L94.3894 57.7203L100.041 52.1164C100.607 51.556 101.172 50.9956 102.302 50.9956C102.868 50.9956 103.998 51.556 104.563 52.1164L111.911 59.4015C112.476 60.5223 112.476 62.2034 111.346 63.3242ZM56.5206 94.7061V106.474H68.3899L102.868 72.2905L91.5634 61.0827L56.5206 94.7061ZM46.4034 71.8982L35.3254 58.673L19.7822 78.4548H57.1989L71.5551 64.7252L61.9466 52.0604L46.4034 71.8982ZM45.2165 94.7061V89.9428L45.4991 89.6626H11.3041V11.2078H90.433V46.5685L101.737 35.753V11.2078C101.737 5.04352 96.7068 0 90.433 0H11.3041C5.08685 0 0 5.04352 0 11.2078V89.6626C0 95.883 5.08685 100.87 11.3041 100.87H45.2165V94.7061Z" fill="black"/>
</svg>
