<svg width="117" height="106" viewBox="0 0 117 106" fill="none" xmlns="http://www.w3.org/2000/svg">
<path d="M70.8702 65H46.1298C45.3096 65 44.523 64.7191 43.9431 64.219C43.3631 63.7189 43.0373 63.0406 43.0373 62.3333V41.1867L39.017 43.9867C37.8109 45 35.8626 45 34.6565 43.9867L25.9046 36.44C24.6985 35.4 24.6985 33.72 25.9046 32.68L44.0887 17H49.2224C49.2224 19.9333 53.3664 22.3333 58.5 22.3333C63.6336 22.3333 67.7776 19.9333 67.7776 17H72.9113L91.0954 32.68C92.3015 33.72 92.3015 35.4 91.0954 36.44L82.3435 43.9867C81.1374 45 79.1891 45 77.983 43.9867L73.9627 41.1867V62.3333C73.9627 63.0406 73.6369 63.7189 73.0569 64.219C72.477 64.7191 71.6904 65 70.8702 65ZM84.5392 34.5467L71.2104 23.08C70.2517 24.0133 69.1074 24.84 67.7776 25.5333C65.1799 26.8667 61.9946 27.6667 58.5 27.6667C53.2427 27.6667 48.5729 25.8533 45.7896 23.08L32.4608 34.5467L36.8522 38.3333L46.1298 33H49.2224V59.6667H67.7776V33H70.8702L80.1478 38.3333L84.5392 34.5467Z" fill="black"/>
<path d="M106.364 74.2H10.6364V10.6H106.364M106.364 0H10.6364C4.73318 0 0 4.717 0 10.6V74.2C0 77.0113 1.12061 79.7075 3.11532 81.6953C5.11002 83.6832 7.81542 84.8 10.6364 84.8H47.8636V95.4H37.2273V106H79.7727V95.4H69.1364V84.8H106.364C109.185 84.8 111.89 83.6832 113.885 81.6953C115.879 79.7075 117 77.0113 117 74.2V10.6C117 4.717 112.214 0 106.364 0Z" fill="black"/>
<rect x="52" y="32" width="13" height="9" fill="#FF5858"/>
</svg>
