<svg width="145" height="106" viewBox="0 0 145 106" fill="none" xmlns="http://www.w3.org/2000/svg">
<path d="M112.045 96.0625C117.516 96.0625 121.932 91.6237 121.932 86.125C121.932 80.6263 117.516 76.1875 112.045 76.1875C106.575 76.1875 102.159 80.6263 102.159 86.125C102.159 91.6237 106.575 96.0625 112.045 96.0625ZM121.932 36.4375H105.455V53H134.85L121.932 36.4375ZM32.9545 96.0625C38.425 96.0625 42.8409 91.6237 42.8409 86.125C42.8409 80.6263 38.425 76.1875 32.9545 76.1875C27.4841 76.1875 23.0682 80.6263 23.0682 86.125C23.0682 91.6237 27.4841 96.0625 32.9545 96.0625ZM125.227 26.5L145 53V86.125H131.818C131.818 97.1225 122.986 106 112.045 106C101.105 106 92.2727 97.1225 92.2727 86.125H52.7273C52.7273 97.1225 43.8955 106 32.9545 106C22.0136 106 13.1818 97.1225 13.1818 86.125H0V13.25C0 5.89625 5.86591 0 13.1818 0H105.455V26.5H125.227ZM13.1818 13.25V72.875H18.1909C21.8159 68.8337 27.0886 66.25 32.9545 66.25C38.8205 66.25 44.0932 68.8337 47.7182 72.875H92.2727V13.25H13.1818ZM59.3182 19.875L82.3864 43.0625L59.3182 66.25V49.6875H26.3636V36.4375H59.3182V19.875Z" fill="black"/>
</svg>
